<?xml version="1.0"?><svg width="640" height="480" xmlns="http://www.w3.org/2000/svg">
 <title>amazon-style_close-button</title>
 <defs>
  <linearGradient y2="1" x2="1" y1="0" x1="0" id="svg_9">
   <stop stop-color="#a8a8a8" offset="0"/>
   <stop stop-color="#383838" offset="1"/>
  </linearGradient>
 </defs>
 <metadata id="metadata2051">image/svg+xmlround error warning buttonLumen Design StudioLumen Design Studioerror warning iconerroriconbuttonredstopnowarningnegativedeletecancel</metadata>
 <g>
  <title>Layer 1</title>
  <circle id="svg_10" r="123.03688" cy="130.999999" cx="126.999999" stroke-linecap="null" stroke-linejoin="null" stroke-dasharray="null" stroke-width="0" fill="#898989"/>
  <circle id="svg_6" r="122.03688" cy="131" cx="127" stroke-linecap="null" stroke-linejoin="null" stroke-dasharray="null" stroke-width="0" fill="#e5e5e5"/>
  <circle id="svg_5" r="106.677086" cy="131" cx="127" stroke-linecap="null" stroke-linejoin="null" stroke-dasharray="null" stroke-width="0" fill="url(#svg_9)"/>
  <g id="svg_8">
   <path id="text2705" d="m167.574188,207.518646l-40.8862,-40.886215l-41.270874,41.270706l-33.712921,-33.712891l41.270782,-41.270859l-40.886261,-40.886261l32.815674,-32.81559l40.886261,40.886238l41.399017,-41.398956l33.71286,33.712875l-41.398956,41.399094l40.886322,40.886154l-32.815704,32.815704" stroke-width="1px" fill="#3f3f3f" opacity="0.735294"/>
   <path id="text2713" d="m166.601288,200.572128l-39.983093,-39.983093l-40.297882,40.297943l-27.599915,-27.599869l40.297943,-40.297974l-39.983063,-39.983002l26.865234,-26.865288l39.983154,39.982994l40.40274,-40.40284l27.599884,27.599876l-40.402802,40.402817l39.983063,39.983124l-26.865265,26.865311" stroke-width="1px" fill="#e0dbdb"/>
  </g>
 </g>
</svg>